<?xml version="1.0" standalone="no"?><!DOCTYPE svg PUBLIC "-//W3C//DTD SVG 1.1//EN" "http://www.w3.org/Graphics/SVG/1.1/DTD/svg11.dtd"><svg t="1709004160622" class="icon" viewBox="0 0 1024 1024" version="1.1" xmlns="http://www.w3.org/2000/svg" p-id="2529" xmlns:xlink="http://www.w3.org/1999/xlink" width="200" height="200"><path d="M908.8 128l-4-16.8-4-20-20 3.2c-163.2 27.2-285.6 40-367.2 39.2-81.6-0.8-205.6-15.2-369.6-44l-20-3.2-8.8 36.8c-15.2 64-23.2 130.4-23.2 198.4-0.8 160.8 39.2 313.6 114.4 429.6 37.6 57.6 81.6 104 131.2 136 52.8 35.2 110.4 52.8 169.6 52.8 32 0 64-4.8 94.4-14.4 26.4-8.8 52-20.8 76-36 50.4-32 95.2-76.8 132.8-134.4 76.8-114.4 119.2-266.4 120-428 0-67.2-7.2-134.4-21.6-199.2z m-608 396c-28-14.4-49.6-39.2-60-69.6-9.6-30.4-7.2-63.2 7.2-92l214.4 108.8C432 530.4 360 554.4 300.8 524zM488 766.4c-75.2-10.4-135.2-69.6-145.6-145.6C383.2 673.6 445.6 704 512 704c65.6 0 127.2-29.6 167.2-80.8l1.6-2.4C668 714.4 581.6 779.2 488 766.4z m228-242.4c-16.8 8.8-35.2 12.8-54.4 12.8-45.6 0-87.2-25.6-107.2-65.6l214.4-108.8c30.4 59.2 6.4 132-52.8 161.6z" p-id="2530"></path></svg>