<?xml version="1.0" standalone="no"?><!DOCTYPE svg PUBLIC "-//W3C//DTD SVG 1.1//EN" "http://www.w3.org/Graphics/SVG/1.1/DTD/svg11.dtd"><svg t="1709004112649" class="icon" viewBox="0 0 1024 1024" version="1.1" xmlns="http://www.w3.org/2000/svg" p-id="1464" xmlns:xlink="http://www.w3.org/1999/xlink" width="200" height="200"><path d="M512 64c-211.2 0-384 172.8-384 384v160c0 54.4 41.6 96 96 96h64c54.4 0 96-41.6 96-96v-96c0-54.4-41.6-96-96-96h-64c-9.6 0-22.4 3.2-32 6.4 16-166.4 153.6-294.4 320-294.4s304 128 320 294.4c-9.6-3.2-19.2-6.4-32-6.4h-64c-54.4 0-96 41.6-96 96v96c0 54.4 41.6 96 96 96h64c9.6 0 19.2-3.2 28.8-3.2-12.8 73.6-76.8 131.2-156.8 131.2h-6.4c-12.8-38.4-48-64-89.6-64h-64c-54.4 0-96 41.6-96 96s41.6 96 96 96h64c41.6 0 76.8-25.6 89.6-64h6.4c124.8 0 224-99.2 224-224v-224c0-211.2-172.8-384-384-384z m-288 416h64c19.2 0 32 12.8 32 32v96c0 19.2-12.8 32-32 32h-64c-19.2 0-32-12.8-32-32v-96c0-19.2 12.8-32 32-32z m352 416h-64c-19.2 0-32-12.8-32-32s12.8-32 32-32h64c19.2 0 32 12.8 32 32s-12.8 32-32 32z m256-288c0 19.2-12.8 32-32 32h-64c-19.2 0-32-12.8-32-32v-96c0-19.2 12.8-32 32-32h64c19.2 0 32 12.8 32 32v96z" fill="#374E6B" p-id="1465"></path></svg>